<?xml version="1.0" encoding="UTF-8" standalone="no" ?>
<!DOCTYPE svg PUBLIC "-//W3C//DTD SVG 1.1//EN" "http://www.w3.org/Graphics/SVG/1.1/DTD/svg11.dtd">
<svg xmlns="http://www.w3.org/2000/svg" xmlns:xlink="http://www.w3.org/1999/xlink" version="1.1" width="1280" height="1024" viewBox="0 0 1280 1024" xml:space="preserve">
<desc>Created with Fabric.js 5.3.0</desc>
<defs>
</defs>
<g transform="matrix(1 0 0 1 640 512)" id="background-logo"  >
<rect style="stroke: none; stroke-width: 0; stroke-dasharray: none; stroke-linecap: butt; stroke-dashoffset: 0; stroke-linejoin: miter; stroke-miterlimit: 4; fill: rgb(255,255,255); fill-opacity: 0; fill-rule: nonzero; opacity: 1;"  paint-order="stroke"  x="-640" y="-512" rx="0" ry="0" width="1280" height="1024" />
</g>
<g transform="matrix(1.9211538461538462 0 0 1.9211538461538462 639.6174954453444 653.1509202420872)" id="text-logo"  >
<g style=""  paint-order="stroke"   >
		<g transform="matrix(1 0 0 1 0 -23.59439999999995)" id="text-logo-path-0"  >
<path style="stroke: none; stroke-width: 0.3829787234042551; stroke-dasharray: none; stroke-linecap: butt; stroke-dashoffset: 0; stroke-linejoin: miter; stroke-miterlimit: 4; fill: rgb(0,0,0); fill-rule: nonzero; opacity: 1;"  paint-order="stroke"  transform=" translate(-203.11, 12.6)" d="M 14.8 0.36 C 23 0.36 27.11 -2.63 27.11 -8.6 L 20.99 -8.6 C 20.99 -6.01 18.11 -4.68 14.8 -4.68 C 10.15 -4.68 7.92 -7.06 7.92 -12.64 C 7.92 -18 10.01 -20.52 14.8 -20.52 C 18.29 -20.52 21.02 -19.44 21.02 -16.56 L 27.14 -16.56 C 26.71 -22.57 22 -25.56 14.8 -25.56 C 6.01 -25.56 1.8 -21.6 1.8 -12.64 C 1.8 -3.85 5.76 0.36 14.8 0.36 Z M 57.64 0 L 63.76 0 L 54.22 -25.2 L 47.74 -25.2 L 38.2 0 L 44.32 0 L 46.08 -4.68 L 55.87 -4.68 L 57.64 0 Z M 47.99 -9.72 L 50.98 -17.6 L 53.96 -9.72 L 47.99 -9.72 Z M 74.81 0 L 90.18 0 C 95.51 0 98.1 -2.45 98.1 -7.92 C 98.1 -11.45 96.95 -13.79 94.68 -14.94 C 95.76 -16.02 96.3 -17.46 96.3 -19.26 C 96.3 -22.9 93.92 -25.2 90.36 -25.2 L 74.81 -25.2 L 74.81 0 Z M 80.93 -5.04 L 80.93 -10.8 L 90.18 -10.8 C 91.44 -10.8 91.98 -9.94 91.98 -7.92 C 91.98 -6.01 91.44 -5.04 90.18 -5.04 L 80.93 -5.04 Z M 80.93 -15.84 L 80.93 -20.16 L 88.99 -20.16 C 89.71 -20.16 90.18 -19.26 90.18 -18 C 90.18 -16.7 89.68 -15.84 88.99 -15.84 L 80.93 -15.84 Z M 109.15 0 L 115.27 0 L 115.27 -8.28 L 119.84 -8.28 L 124.63 0 L 131.11 0 L 126 -8.86 C 129.1 -9.94 130.64 -12.6 130.64 -16.81 C 130.64 -22.39 127.84 -25.2 122.22 -25.2 L 109.15 -25.2 L 109.15 0 Z M 115.27 -13.32 L 115.27 -20.16 L 122.18 -20.16 C 123.66 -20.16 124.52 -19.04 124.52 -16.78 C 124.52 -14.47 123.73 -13.32 122.18 -13.32 L 115.27 -13.32 Z M 161.6 0 L 167.72 0 L 158.18 -25.2 L 151.7 -25.2 L 142.16 0 L 148.28 0 L 150.05 -4.68 L 159.84 -4.68 L 161.6 0 Z M 151.96 -9.72 L 154.94 -17.6 L 157.93 -9.72 L 151.96 -9.72 Z M 203.36 -5.04 L 199.55 -5.04 L 199.55 -20.16 L 203.36 -20.16 C 206.96 -20.16 209.09 -19.26 210.13 -17.1 C 210.64 -15.98 210.89 -14.51 210.89 -12.64 C 210.89 -9 209.95 -6.84 207.83 -5.83 C 206.71 -5.29 205.24 -5.04 203.36 -5.04 Z M 193.43 0 L 204.44 0 C 210.38 0 213.95 -1.58 215.71 -5.26 C 216.58 -7.09 217.01 -9.54 217.01 -12.64 C 217.01 -18.65 215.46 -22.18 211.82 -23.9 C 209.99 -24.77 207.54 -25.2 204.44 -25.2 L 193.43 -25.2 L 193.43 0 Z M 247.5 0 L 253.62 0 L 244.08 -25.2 L 237.6 -25.2 L 228.06 0 L 234.18 0 L 235.94 -4.68 L 245.74 -4.68 L 247.5 0 Z M 237.85 -9.72 L 240.84 -17.6 L 243.83 -9.72 L 237.85 -9.72 Z M 287.24 0 L 293.36 0 L 293.36 -20.16 L 301.28 -20.16 L 301.28 -25.2 L 279.32 -25.2 L 279.32 -20.16 L 287.24 -20.16 L 287.24 0 Z M 312.34 0 L 332.86 0 L 332.86 -5.04 L 318.46 -5.04 L 318.46 -10.08 L 329.26 -10.08 L 329.26 -15.12 L 318.46 -15.12 L 318.46 -20.16 L 332.86 -20.16 L 332.86 -25.2 L 312.34 -25.2 L 312.34 0 Z M 356.9 0.36 C 365.11 0.36 369.22 -2.63 369.22 -8.6 L 363.1 -8.6 C 363.1 -6.01 360.22 -4.68 356.9 -4.68 C 352.26 -4.68 350.03 -7.06 350.03 -12.64 C 350.03 -18 352.12 -20.52 356.9 -20.52 C 360.4 -20.52 363.13 -19.44 363.13 -16.56 L 369.25 -16.56 C 368.82 -22.57 364.1 -25.56 356.9 -25.56 C 348.12 -25.56 343.91 -21.6 343.91 -12.64 C 343.91 -3.85 347.87 0.36 356.9 0.36 Z M 398.3 0 L 404.42 0 L 404.42 -25.2 L 398.3 -25.2 L 398.3 -15.12 L 386.42 -15.12 L 386.42 -25.2 L 380.3 -25.2 L 380.3 0 L 386.42 0 L 386.42 -10.08 L 398.3 -10.08 L 398.3 0 Z" stroke-linecap="round" />
</g>
		<g transform="matrix(1 0 0 1 0.06299999999998818 23.594400000000007)" id="text-logo-path-1"  >
<path style="stroke: none; stroke-width: 0.3829787234042551; stroke-dasharray: none; stroke-linecap: butt; stroke-dashoffset: 0; stroke-linejoin: miter; stroke-miterlimit: 4; fill: rgb(0,0,0); fill-rule: nonzero; opacity: 1;"  paint-order="stroke"  transform=" translate(-68.43499999999999, 12.6)" d="M 18.36 0 L 25.92 0 L 25.92 -25.2 L 19.8 -25.2 L 19.8 -7.81 L 9.36 -25.2 L 1.8 -25.2 L 1.8 0 L 7.92 0 L 7.92 -17.39 L 18.36 0 Z M 36.97 0 L 57.49 0 L 57.49 -5.04 L 43.09 -5.04 L 43.09 -10.08 L 53.89 -10.08 L 53.89 -15.12 L 43.09 -15.12 L 43.09 -20.16 L 57.49 -20.16 L 57.49 -25.2 L 36.97 -25.2 L 36.97 0 Z M 90.68 0 L 97.16 0 L 104.18 -25.2 L 98.06 -25.2 L 93.64 -9.29 L 89.42 -25.2 L 83.3 -25.2 L 79.09 -9.29 L 74.66 -25.2 L 68.54 -25.2 L 75.56 0 L 82.04 0 L 86.36 -14.76 L 90.68 0 Z M 123.7 0.36 C 129.71 0.36 132.88 -0.94 134.14 -3.28 C 134.75 -4.43 135.07 -5.98 135.07 -7.85 C 135.07 -12.74 132.8 -15.12 126.43 -15.12 L 123.7 -15.12 C 121.18 -15.12 119.74 -15.12 119.02 -15.84 C 118.69 -16.16 118.51 -16.74 118.51 -17.53 C 118.51 -19.15 118.94 -19.91 120.42 -20.27 C 121.18 -20.45 122.26 -20.52 123.73 -20.52 C 125.86 -20.52 126.94 -20.34 127.66 -19.22 C 128.02 -18.68 128.2 -17.82 128.2 -16.7 L 134.35 -16.7 C 134.35 -23.33 130.75 -25.56 123.73 -25.56 C 117.72 -25.56 114.59 -24.26 113.33 -21.92 C 112.68 -20.77 112.36 -19.22 112.36 -17.35 C 112.36 -12.46 114.62 -10.08 121 -10.08 L 123.7 -10.08 C 126.11 -10.08 127.66 -9.94 128.41 -9.22 C 128.74 -8.86 128.92 -8.35 128.92 -7.67 C 128.92 -6.05 128.52 -5.33 127.04 -4.97 C 126.25 -4.75 125.17 -4.68 123.7 -4.68 C 121.1 -4.68 119.84 -4.86 119.09 -5.98 C 118.69 -6.52 118.51 -7.34 118.51 -8.5 L 112.36 -8.5 C 112.36 -3.92 114.08 -1.51 117.43 -0.43 C 119.09 0.11 121.14 0.36 123.7 0.36 Z" stroke-linecap="round" />
</g>
</g>
</g>
<g transform="matrix(1.9211538461538462 0 0 1.9211538461538462 639.5223983299596 391.9736973847213)" id="tagline-83fdfb2a-8044-4ad8-b129-1c6be14b1c43-logo"  >
<g style=""  paint-order="stroke"   >
		<g transform="matrix(1 0 0 1 0 0)" id="tagline-83fdfb2a-8044-4ad8-b129-1c6be14b1c43-logo-path-0"  >
<path style="stroke: rgb(255,255,255); stroke-width: 0; stroke-dasharray: none; stroke-linecap: butt; stroke-dashoffset: 0; stroke-linejoin: miter; stroke-miterlimit: 4; fill: rgb(0,0,0); fill-rule: nonzero; opacity: 1;"  paint-order="stroke"  transform=" translate(-156.775, 66.15)" d="M 77.68 1.89 C 120.77 1.89 142.32 -13.8 142.32 -45.17 L 110.19 -45.17 C 110.19 -31.56 95.07 -24.57 77.68 -24.57 C 53.3 -24.57 41.58 -37.04 41.58 -66.34 C 41.58 -94.5 52.54 -107.73 77.68 -107.73 C 96.01 -107.73 110.38 -102.06 110.38 -86.94 L 142.51 -86.94 C 140.24 -118.5 115.48 -134.19 77.68 -134.19 C 31.56 -134.19 9.45 -113.4 9.45 -66.34 C 9.45 -20.22 30.24 1.89 77.68 1.89 Z M 232.47 -26.46 L 212.44 -26.46 L 212.44 -105.84 L 232.47 -105.84 C 251.37 -105.84 262.52 -101.11 268 -89.78 C 270.65 -83.92 271.97 -76.17 271.97 -66.34 C 271.97 -47.25 267.06 -35.91 255.91 -30.62 C 250.05 -27.78 242.3 -26.46 232.47 -26.46 Z M 180.31 0 L 238.14 0 C 269.32 0 288.04 -8.32 297.3 -27.59 C 301.83 -37.23 304.1 -50.09 304.1 -66.34 C 304.1 -97.9 295.97 -116.42 276.88 -125.5 C 267.25 -130.03 254.39 -132.3 238.14 -132.3 L 180.31 -132.3 L 180.31 0 Z" stroke-linecap="round" />
</g>
</g>
</g>
</svg>